<svg width="275" height="62" viewBox="0 0 275 62" fill="none" xmlns="http://www.w3.org/2000/svg">
<path d="M9.66432 22.1078C9.66432 17.3705 13.2647 13.53 17.706 13.53H46.9241C51.3654 13.53 54.9658 17.3705 54.9658 22.1078V53.2738C54.9658 58.0112 51.3654 61.8517 46.9241 61.8517H17.706C13.2647 61.8517 9.66432 58.0112 9.66432 53.2738V22.1078Z" fill="#444444"/>
<path d="M30.9994 32.5957C30.9994 33.1569 30.9536 33.6448 30.8621 34.0596C30.9536 34.45 30.9994 34.938 30.9994 35.5236C30.9994 36.0848 30.9536 36.5727 30.8621 36.9875H29.4897C29.5812 37.3779 29.6269 37.8659 29.6269 38.4515C29.6269 39.0126 29.5812 39.5006 29.4897 39.9154H22.6275C22.719 40.3058 22.7647 40.7938 22.7647 41.3794C22.7647 41.9405 22.719 42.4285 22.6275 42.8433C22.719 43.2337 22.7647 43.7217 22.7647 44.3072C22.7647 44.8684 22.719 45.3564 22.6275 45.7712C22.719 46.1616 22.7647 46.6495 22.7647 47.2351C22.7647 47.7963 22.719 48.2843 22.6275 48.6991H19.8826C19.7911 48.2843 19.7453 47.7963 19.7453 47.2351C19.7453 46.6495 19.7911 46.1616 19.8826 45.7712C19.7911 45.3564 19.7453 44.8684 19.7453 44.3072C19.7453 43.7217 19.7911 43.2337 19.8826 42.8433C19.7911 42.4285 19.7453 41.9405 19.7453 41.3794C19.7453 40.7938 19.7911 40.3058 19.8826 39.9154C19.7911 39.5006 19.7453 39.0126 19.7453 38.4515C19.7453 37.8659 19.7911 37.3779 19.8826 36.9875C19.7911 36.5727 19.7453 36.0848 19.7453 35.5236C19.7453 34.938 19.7911 34.45 19.8826 34.0596C19.7911 33.6448 19.7453 33.1569 19.7453 32.5957C19.7453 32.0101 19.7911 31.5221 19.8826 31.1317C19.7911 30.717 19.7453 30.229 19.7453 29.6678C19.7453 29.0822 19.7911 28.5942 19.8826 28.2039H29.4897C29.5812 28.5942 29.6269 29.0822 29.6269 29.6678C29.6269 30.229 29.5812 30.717 29.4897 31.1317H30.8621C30.9536 31.5221 30.9994 32.0101 30.9994 32.5957ZM28.1172 36.9875C28.0258 36.5727 27.98 36.0848 27.98 35.5236C27.98 34.938 28.0258 34.45 28.1172 34.0596C28.0258 33.6448 27.98 33.1569 27.98 32.5957C27.98 32.0101 28.0258 31.5221 28.1172 31.1317H22.6275C22.719 31.5221 22.7647 32.0101 22.7647 32.5957C22.7647 33.1569 22.719 33.6448 22.6275 34.0596C22.719 34.45 22.7647 34.938 22.7647 35.5236C22.7647 36.0848 22.719 36.5727 22.6275 36.9875H28.1172Z" fill="white"/>
<path d="M44.6 36.9875C44.6915 37.3779 44.7373 37.8659 44.7373 38.4515C44.7373 39.0126 44.6915 39.5006 44.6 39.9154C44.6915 40.3058 44.7373 40.7938 44.7373 41.3794C44.7373 41.9405 44.6915 42.4285 44.6 42.8433C44.6915 43.2337 44.7373 43.7217 44.7373 44.3072C44.7373 44.8684 44.6915 45.3564 44.6 45.7712H43.2276C43.3191 46.1616 43.3648 46.6495 43.3648 47.2351C43.3648 47.7963 43.3191 48.2843 43.2276 48.6991H36.3653C36.2738 48.2843 36.2281 47.7963 36.2281 47.2351C36.2281 46.6495 36.2738 46.1616 36.3653 45.7712H34.9929C34.9014 45.3564 34.8556 44.8684 34.8556 44.3072C34.8556 43.7217 34.9014 43.2337 34.9929 42.8433H33.6204C33.5289 42.4285 33.4832 41.9405 33.4832 41.3794C33.4832 40.7938 33.5289 40.3058 33.6204 39.9154C33.5289 39.5006 33.4832 39.0126 33.4832 38.4515C33.4832 37.8659 33.5289 37.3779 33.6204 36.9875C33.5289 36.5727 33.4832 36.0848 33.4832 35.5236C33.4832 34.938 33.5289 34.45 33.6204 34.0596H34.9929C34.9014 33.6448 34.8556 33.1569 34.8556 32.5957C34.8556 32.0101 34.9014 31.5221 34.9929 31.1317H36.3653C36.2738 30.717 36.2281 30.229 36.2281 29.6678C36.2281 29.0822 36.2738 28.5942 36.3653 28.2039H43.2276C43.3191 28.5942 43.3648 29.0822 43.3648 29.6678C43.3648 30.229 43.3191 30.717 43.2276 31.1317H44.6C44.6915 31.5221 44.7373 32.0101 44.7373 32.5957C44.7373 33.1569 44.6915 33.6448 44.6 34.0596H41.8551C41.7636 33.6448 41.7179 33.1569 41.7179 32.5957C41.7179 32.0101 41.7636 31.5221 41.8551 31.1317H37.7378C37.8293 31.5221 37.875 32.0101 37.875 32.5957C37.875 33.1569 37.8293 33.6448 37.7378 34.0596H36.3653C36.4568 34.45 36.5026 34.938 36.5026 35.5236C36.5026 36.0848 36.4568 36.5727 36.3653 36.9875C36.4568 37.3779 36.5026 37.8659 36.5026 38.4515C36.5026 39.0126 36.4568 39.5006 36.3653 39.9154C36.4568 40.3058 36.5026 40.7938 36.5026 41.3794C36.5026 41.9405 36.4568 42.4285 36.3653 42.8433H37.7378C37.8293 43.2337 37.875 43.7217 37.875 44.3072C37.875 44.8684 37.8293 45.3564 37.7378 45.7712H41.8551C41.7636 45.3564 41.7179 44.8684 41.7179 44.3072C41.7179 43.7217 41.7636 43.2337 41.8551 42.8433C41.7636 42.4285 41.7179 41.9405 41.7179 41.3794C41.7179 40.7938 41.7636 40.3058 41.8551 39.9154H39.7965C39.705 39.5006 39.6592 39.0126 39.6592 38.4515C39.6592 37.8659 39.705 37.3779 39.7965 36.9875H44.6Z" fill="white"/>
<path d="M11.5972 5.23818C11.5972 4.48019 12.2116 3.86573 12.9696 3.86573H17.9562C18.7142 3.86573 19.3286 4.48019 19.3286 5.23818V10.2247C19.3286 10.9827 18.7142 11.5972 17.9562 11.5972H12.9696C12.2116 11.5972 11.5972 10.9827 11.5972 10.2247V5.23818Z" fill="#444444"/>
<path d="M0 12.9696C0 12.2116 0.614466 11.5972 1.37245 11.5972H6.35901C7.11699 11.5972 7.73146 12.2116 7.73146 12.9696V17.9562C7.73146 18.7142 7.11699 19.3286 6.35901 19.3286H1.37245C0.614466 19.3286 0 18.7142 0 17.9562V12.9696Z" fill="#444444"/>
<path d="M0 1.37245C0 0.614466 0.614466 0 1.37245 0H6.35901C7.11699 0 7.73146 0.614466 7.73146 1.37245V6.35901C7.73146 7.11699 7.11699 7.73146 6.35901 7.73146H1.37245C0.614466 7.73146 0 7.11699 0 6.35901V1.37245Z" fill="#444444"/>
<path d="M79.4555 22.7802C79.4555 23.4682 79.3996 24.0665 79.2879 24.575C79.3996 25.0536 79.4555 25.6519 79.4555 26.3698C79.4555 27.0578 79.3996 27.6561 79.2879 28.1646H77.6126C77.7243 28.6432 77.7801 29.2415 77.7801 29.9594C77.7801 30.6474 77.7243 31.2457 77.6126 31.7542H69.2357C69.3474 32.2328 69.4032 32.8311 69.4032 33.549C69.4032 34.237 69.3474 34.8353 69.2357 35.3438C69.3474 35.8224 69.4032 36.4207 69.4032 37.1386C69.4032 37.8266 69.3474 38.4249 69.2357 38.9334C69.3474 39.412 69.4032 40.0103 69.4032 40.7282C69.4032 41.4162 69.3474 42.0145 69.2357 42.523H65.8849C65.7732 42.0145 65.7174 41.4162 65.7174 40.7282C65.7174 40.0103 65.7732 39.412 65.8849 38.9334C65.7732 38.4249 65.7174 37.8266 65.7174 37.1386C65.7174 36.4207 65.7732 35.8224 65.8849 35.3438C65.7732 34.8353 65.7174 34.237 65.7174 33.549C65.7174 32.8311 65.7732 32.2328 65.8849 31.7542C65.7732 31.2457 65.7174 30.6474 65.7174 29.9594C65.7174 29.2415 65.7732 28.6432 65.8849 28.1646C65.7732 27.6561 65.7174 27.0578 65.7174 26.3698C65.7174 25.6519 65.7732 25.0536 65.8849 24.575C65.7732 24.0665 65.7174 23.4682 65.7174 22.7802C65.7174 22.0623 65.7732 21.464 65.8849 20.9854C65.7732 20.4769 65.7174 19.8786 65.7174 19.1906C65.7174 18.4727 65.7732 17.8744 65.8849 17.3958H77.6126C77.7243 17.8744 77.7801 18.4727 77.7801 19.1906C77.7801 19.8786 77.7243 20.4769 77.6126 20.9854H79.2879C79.3996 21.464 79.4555 22.0623 79.4555 22.7802ZM75.9372 28.1646C75.8255 27.6561 75.7697 27.0578 75.7697 26.3698C75.7697 25.6519 75.8255 25.0536 75.9372 24.575C75.8255 24.0665 75.7697 23.4682 75.7697 22.7802C75.7697 22.0623 75.8255 21.464 75.9372 20.9854H69.2357C69.3474 21.464 69.4032 22.0623 69.4032 22.7802C69.4032 23.4682 69.3474 24.0665 69.2357 24.575C69.3474 25.0536 69.4032 25.6519 69.4032 26.3698C69.4032 27.0578 69.3474 27.6561 69.2357 28.1646H75.9372Z" fill="#292D32"/>
<path d="M87.6812 20.9854C87.5695 20.4769 87.5137 19.8786 87.5137 19.1906C87.5137 18.4727 87.5695 17.8744 87.6812 17.3958H91.032C91.1437 17.8744 91.1995 18.4727 91.1995 19.1906C91.1995 19.8786 91.1437 20.4769 91.032 20.9854H87.6812ZM94.3827 38.9334C94.4944 39.412 94.5503 40.0103 94.5503 40.7282C94.5503 41.4162 94.4944 42.0145 94.3827 42.523H84.3304C84.2188 42.0145 84.1629 41.4162 84.1629 40.7282C84.1629 40.0103 84.2188 39.412 84.3304 38.9334H87.6812C87.5695 38.4249 87.5137 37.8266 87.5137 37.1386C87.5137 36.4207 87.5695 35.8224 87.6812 35.3438C87.5695 34.8353 87.5137 34.237 87.5137 33.549C87.5137 32.8311 87.5695 32.2328 87.6812 31.7542C87.5695 31.2457 87.5137 30.6474 87.5137 29.9594C87.5137 29.2415 87.5695 28.6432 87.6812 28.1646H85.1681C85.0564 27.6561 85.0006 27.0578 85.0006 26.3698C85.0006 25.6519 85.0564 25.0536 85.1681 24.575H91.032C91.1437 25.0536 91.1995 25.6519 91.1995 26.3698C91.1995 27.0578 91.1437 27.6561 91.032 28.1646C91.1437 28.6432 91.1995 29.2415 91.1995 29.9594C91.1995 30.6474 91.1437 31.2457 91.032 31.7542C91.1437 32.2328 91.1995 32.8311 91.1995 33.549C91.1995 34.237 91.1437 34.8353 91.032 35.3438C91.1437 35.8224 91.1995 36.4207 91.1995 37.1386C91.1995 37.8266 91.1437 38.4249 91.032 38.9334H94.3827Z" fill="#333333"/>
<path d="M111.991 38.9334C112.102 39.412 112.158 40.0103 112.158 40.7282C112.158 41.4162 112.102 42.0145 111.991 42.523H108.64C108.528 42.0145 108.472 41.4162 108.472 40.7282C108.472 40.0103 108.528 39.412 108.64 38.9334H107.383C107.272 38.4249 107.216 37.8266 107.216 37.1386C107.216 36.4207 107.272 35.8224 107.383 35.3438H105.289C105.401 35.8224 105.457 36.4207 105.457 37.1386C105.457 37.8266 105.401 38.4249 105.289 38.9334H103.614C103.725 39.412 103.781 40.0103 103.781 40.7282C103.781 41.4162 103.725 42.0145 103.614 42.523H100.263C100.151 42.0145 100.095 41.4162 100.095 40.7282C100.095 40.0103 100.151 39.412 100.263 38.9334H101.938C101.827 38.4249 101.771 37.8266 101.771 37.1386C101.771 36.4207 101.827 35.8224 101.938 35.3438H103.614C103.502 34.8353 103.446 34.237 103.446 33.549C103.446 32.8311 103.502 32.2328 103.614 31.7542H101.938C101.827 31.2457 101.771 30.6474 101.771 29.9594C101.771 29.2415 101.827 28.6432 101.938 28.1646H100.263C100.151 27.6561 100.095 27.0578 100.095 26.3698C100.095 25.6519 100.151 25.0536 100.263 24.575H103.614C103.725 25.0536 103.781 25.6519 103.781 26.3698C103.781 27.0578 103.725 27.6561 103.614 28.1646H105.289C105.401 28.6432 105.457 29.2415 105.457 29.9594C105.457 30.6474 105.401 31.2457 105.289 31.7542H107.383C107.272 31.2457 107.216 30.6474 107.216 29.9594C107.216 29.2415 107.272 28.6432 107.383 28.1646H108.64C108.528 27.6561 108.472 27.0578 108.472 26.3698C108.472 25.6519 108.528 25.0536 108.64 24.575H111.991C112.102 25.0536 112.158 25.6519 112.158 26.3698C112.158 27.0578 112.102 27.6561 111.991 28.1646H110.734C110.846 28.6432 110.902 29.2415 110.902 29.9594C110.902 30.6474 110.846 31.2457 110.734 31.7542H108.64C108.751 32.2328 108.807 32.8311 108.807 33.549C108.807 34.237 108.751 34.8353 108.64 35.3438H110.734C110.846 35.8224 110.902 36.4207 110.902 37.1386C110.902 37.8266 110.846 38.4249 110.734 38.9334H111.991Z" fill="#333333"/>
<path d="M129.766 29.9594C129.766 30.6474 129.71 31.2457 129.598 31.7542C129.71 32.2328 129.766 32.8311 129.766 33.549C129.766 34.237 129.71 34.8353 129.598 35.3438H120.803C120.914 35.8224 120.97 36.4207 120.97 37.1386C120.97 37.8266 120.914 38.4249 120.803 38.9334H127.923C128.035 39.412 128.091 40.0103 128.091 40.7282C128.091 41.4162 128.035 42.0145 127.923 42.523H119.546C119.434 42.0145 119.379 41.4162 119.379 40.7282C119.379 40.0103 119.434 39.412 119.546 38.9334H117.452C117.34 38.4249 117.284 37.8266 117.284 37.1386C117.284 36.4207 117.34 35.8224 117.452 35.3438H116.195C116.084 34.8353 116.028 34.237 116.028 33.549C116.028 32.8311 116.084 32.2328 116.195 31.7542H117.452C117.34 31.2457 117.284 30.6474 117.284 29.9594C117.284 29.2415 117.34 28.6432 117.452 28.1646H119.546C119.434 27.6561 119.379 27.0578 119.379 26.3698C119.379 25.6519 119.434 25.0536 119.546 24.575H127.923C128.035 25.0536 128.091 25.6519 128.091 26.3698C128.091 27.0578 128.035 27.6561 127.923 28.1646H129.598C129.71 28.6432 129.766 29.2415 129.766 29.9594ZM126.248 31.7542C126.136 31.2457 126.08 30.6474 126.08 29.9594C126.08 29.2415 126.136 28.6432 126.248 28.1646H120.803C120.914 28.6432 120.97 29.2415 120.97 29.9594C120.97 30.6474 120.914 31.2457 120.803 31.7542H126.248Z" fill="#333333"/>
<path d="M144.693 38.9334C144.805 39.412 144.861 40.0103 144.861 40.7282C144.861 41.4162 144.805 42.0145 144.693 42.523H134.641C134.529 42.0145 134.473 41.4162 134.473 40.7282C134.473 40.0103 134.529 39.412 134.641 38.9334H137.992C137.88 38.4249 137.824 37.8266 137.824 37.1386C137.824 36.4207 137.88 35.8224 137.992 35.3438C137.88 34.8353 137.824 34.237 137.824 33.549C137.824 32.8311 137.88 32.2328 137.992 31.7542C137.88 31.2457 137.824 30.6474 137.824 29.9594C137.824 29.2415 137.88 28.6432 137.992 28.1646C137.88 27.6561 137.824 27.0578 137.824 26.3698C137.824 25.6519 137.88 25.0536 137.992 24.575C137.88 24.0665 137.824 23.4682 137.824 22.7802C137.824 22.0623 137.88 21.464 137.992 20.9854H135.479C135.367 20.4769 135.311 19.8786 135.311 19.1906C135.311 18.4727 135.367 17.8744 135.479 17.3958H141.342C141.454 17.8744 141.51 18.4727 141.51 19.1906C141.51 19.8786 141.454 20.4769 141.342 20.9854C141.454 21.464 141.51 22.0623 141.51 22.7802C141.51 23.4682 141.454 24.0665 141.342 24.575C141.454 25.0536 141.51 25.6519 141.51 26.3698C141.51 27.0578 141.454 27.6561 141.342 28.1646C141.454 28.6432 141.51 29.2415 141.51 29.9594C141.51 30.6474 141.454 31.2457 141.342 31.7542C141.454 32.2328 141.51 32.8311 141.51 33.549C141.51 34.237 141.454 34.8353 141.342 35.3438C141.454 35.8224 141.51 36.4207 141.51 37.1386C141.51 37.8266 141.454 38.4249 141.342 38.9334H144.693Z" fill="#333333"/>
<path d="M163.139 28.1646C163.25 28.6432 163.306 29.2415 163.306 29.9594C163.306 30.6474 163.25 31.2457 163.139 31.7542C163.25 32.2328 163.306 32.8311 163.306 33.549C163.306 34.237 163.25 34.8353 163.139 35.3438C163.25 35.8224 163.306 36.4207 163.306 37.1386C163.306 37.8266 163.25 38.4249 163.139 38.9334H161.463C161.575 39.412 161.631 40.0103 161.631 40.7282C161.631 41.4162 161.575 42.0145 161.463 42.523H153.086C152.975 42.0145 152.919 41.4162 152.919 40.7282C152.919 40.0103 152.975 39.412 153.086 38.9334H151.411C151.299 38.4249 151.244 37.8266 151.244 37.1386C151.244 36.4207 151.299 35.8224 151.411 35.3438H149.736C149.624 34.8353 149.568 34.237 149.568 33.549C149.568 32.8311 149.624 32.2328 149.736 31.7542C149.624 31.2457 149.568 30.6474 149.568 29.9594C149.568 29.2415 149.624 28.6432 149.736 28.1646C149.624 27.6561 149.568 27.0578 149.568 26.3698C149.568 25.6519 149.624 25.0536 149.736 24.575H151.411C151.299 24.0665 151.244 23.4682 151.244 22.7802C151.244 22.0623 151.299 21.464 151.411 20.9854H153.086C152.975 20.4769 152.919 19.8786 152.919 19.1906C152.919 18.4727 152.975 17.8744 153.086 17.3958H161.463C161.575 17.8744 161.631 18.4727 161.631 19.1906C161.631 19.8786 161.575 20.4769 161.463 20.9854H163.139C163.25 21.464 163.306 22.0623 163.306 22.7802C163.306 23.4682 163.25 24.0665 163.139 24.575H159.788C159.676 24.0665 159.62 23.4682 159.62 22.7802C159.62 22.0623 159.676 21.464 159.788 20.9854H154.762C154.874 21.464 154.929 22.0623 154.929 22.7802C154.929 23.4682 154.874 24.0665 154.762 24.575H153.086C153.198 25.0536 153.254 25.6519 153.254 26.3698C153.254 27.0578 153.198 27.6561 153.086 28.1646C153.198 28.6432 153.254 29.2415 153.254 29.9594C153.254 30.6474 153.198 31.2457 153.086 31.7542C153.198 32.2328 153.254 32.8311 153.254 33.549C153.254 34.237 153.198 34.8353 153.086 35.3438H154.762C154.874 35.8224 154.929 36.4207 154.929 37.1386C154.929 37.8266 154.874 38.4249 154.762 38.9334H159.788C159.676 38.4249 159.62 37.8266 159.62 37.1386C159.62 36.4207 159.676 35.8224 159.788 35.3438C159.676 34.8353 159.62 34.237 159.62 33.549C159.62 32.8311 159.676 32.2328 159.788 31.7542H157.275C157.163 31.2457 157.107 30.6474 157.107 29.9594C157.107 29.2415 157.163 28.6432 157.275 28.1646H163.139Z" fill="#292D32"/>
<path d="M180.076 29.9594C180.076 30.6474 180.021 31.2457 179.909 31.7542C180.021 32.2328 180.076 32.8311 180.076 33.549C180.076 34.237 180.021 34.8353 179.909 35.3438H171.113C171.225 35.8224 171.281 36.4207 171.281 37.1386C171.281 37.8266 171.225 38.4249 171.113 38.9334H178.233C178.345 39.412 178.401 40.0103 178.401 40.7282C178.401 41.4162 178.345 42.0145 178.233 42.523H169.857C169.745 42.0145 169.689 41.4162 169.689 40.7282C169.689 40.0103 169.745 39.412 169.857 38.9334H167.762C167.651 38.4249 167.595 37.8266 167.595 37.1386C167.595 36.4207 167.651 35.8224 167.762 35.3438H166.506C166.394 34.8353 166.338 34.237 166.338 33.549C166.338 32.8311 166.394 32.2328 166.506 31.7542H167.762C167.651 31.2457 167.595 30.6474 167.595 29.9594C167.595 29.2415 167.651 28.6432 167.762 28.1646H169.857C169.745 27.6561 169.689 27.0578 169.689 26.3698C169.689 25.6519 169.745 25.0536 169.857 24.575H178.233C178.345 25.0536 178.401 25.6519 178.401 26.3698C178.401 27.0578 178.345 27.6561 178.233 28.1646H179.909C180.021 28.6432 180.076 29.2415 180.076 29.9594ZM176.558 31.7542C176.446 31.2457 176.391 30.6474 176.391 29.9594C176.391 29.2415 176.446 28.6432 176.558 28.1646H171.113C171.225 28.6432 171.281 29.2415 171.281 29.9594C171.281 30.6474 171.225 31.2457 171.113 31.7542H176.558Z" fill="#333333"/>
<path d="M186.375 26.3698C186.375 27.0578 186.32 27.6561 186.208 28.1646H187.883C187.995 28.6432 188.051 29.2415 188.051 29.9594C188.051 30.6474 187.995 31.2457 187.883 31.7542H186.627C186.738 32.2328 186.794 32.8311 186.794 33.549C186.794 34.237 186.738 34.8353 186.627 35.3438C186.738 35.8224 186.794 36.4207 186.794 37.1386C186.794 37.8266 186.738 38.4249 186.627 38.9334C186.738 39.412 186.794 40.0103 186.794 40.7282C186.794 41.4162 186.738 42.0145 186.627 42.523H183.276C183.164 42.0145 183.108 41.4162 183.108 40.7282C183.108 40.0103 183.164 39.412 183.276 38.9334C183.164 38.4249 183.108 37.8266 183.108 37.1386C183.108 36.4207 183.164 35.8224 183.276 35.3438C183.164 34.8353 183.108 34.237 183.108 33.549C183.108 32.8311 183.164 32.2328 183.276 31.7542C183.164 31.2457 183.108 30.6474 183.108 29.9594C183.108 29.2415 183.164 28.6432 183.276 28.1646C183.164 27.6561 183.108 27.0578 183.108 26.3698C183.108 25.6519 183.164 25.0536 183.276 24.575H186.208C186.32 25.0536 186.375 25.6519 186.375 26.3698ZM196.679 31.7542C196.791 32.2328 196.847 32.8311 196.847 33.549C196.847 34.237 196.791 34.8353 196.679 35.3438C196.791 35.8224 196.847 36.4207 196.847 37.1386C196.847 37.8266 196.791 38.4249 196.679 38.9334C196.791 39.412 196.847 40.0103 196.847 40.7282C196.847 41.4162 196.791 42.0145 196.679 42.523H193.328C193.217 42.0145 193.161 41.4162 193.161 40.7282C193.161 40.0103 193.217 39.412 193.328 38.9334C193.217 38.4249 193.161 37.8266 193.161 37.1386C193.161 36.4207 193.217 35.8224 193.328 35.3438C193.217 34.8353 193.161 34.237 193.161 33.549C193.161 32.8311 193.217 32.2328 193.328 31.7542C193.217 31.2457 193.161 30.6474 193.161 29.9594C193.161 29.2415 193.217 28.6432 193.328 28.1646H187.883C187.772 27.6561 187.716 27.0578 187.716 26.3698C187.716 25.6519 187.772 25.0536 187.883 24.575H194.585C194.697 25.0536 194.752 25.6519 194.752 26.3698C194.752 27.0578 194.697 27.6561 194.585 28.1646H196.679C196.791 28.6432 196.847 29.2415 196.847 29.9594C196.847 30.6474 196.791 31.2457 196.679 31.7542Z" fill="#333333"/>
<path d="M205.072 20.9854C204.961 20.4769 204.905 19.8786 204.905 19.1906C204.905 18.4727 204.961 17.8744 205.072 17.3958H208.423C208.535 17.8744 208.591 18.4727 208.591 19.1906C208.591 19.8786 208.535 20.4769 208.423 20.9854H205.072ZM211.774 38.9334C211.885 39.412 211.941 40.0103 211.941 40.7282C211.941 41.4162 211.885 42.0145 211.774 42.523H201.722C201.61 42.0145 201.554 41.4162 201.554 40.7282C201.554 40.0103 201.61 39.412 201.722 38.9334H205.072C204.961 38.4249 204.905 37.8266 204.905 37.1386C204.905 36.4207 204.961 35.8224 205.072 35.3438C204.961 34.8353 204.905 34.237 204.905 33.549C204.905 32.8311 204.961 32.2328 205.072 31.7542C204.961 31.2457 204.905 30.6474 204.905 29.9594C204.905 29.2415 204.961 28.6432 205.072 28.1646H202.559C202.448 27.6561 202.392 27.0578 202.392 26.3698C202.392 25.6519 202.448 25.0536 202.559 24.575H208.423C208.535 25.0536 208.591 25.6519 208.591 26.3698C208.591 27.0578 208.535 27.6561 208.423 28.1646C208.535 28.6432 208.591 29.2415 208.591 29.9594C208.591 30.6474 208.535 31.2457 208.423 31.7542C208.535 32.2328 208.591 32.8311 208.591 33.549C208.591 34.237 208.535 34.8353 208.423 35.3438C208.535 35.8224 208.591 36.4207 208.591 37.1386C208.591 37.8266 208.535 38.4249 208.423 38.9334H211.774Z" fill="#333333"/>
<path d="M221.591 37.1386C221.591 37.8266 221.535 38.4249 221.424 38.9334H225.612C225.724 39.412 225.78 40.0103 225.78 40.7282C225.78 41.4162 225.724 42.0145 225.612 42.523H218.911C218.799 42.0145 218.743 41.4162 218.743 40.7282C218.743 40.0103 218.799 39.412 218.911 38.9334H216.816C216.705 38.4249 216.649 37.8266 216.649 37.1386C216.649 36.4207 216.705 35.8224 216.816 35.3438C216.705 34.8353 216.649 34.237 216.649 33.549C216.649 32.8311 216.705 32.2328 216.816 31.7542C216.705 31.2457 216.649 30.6474 216.649 29.9594C216.649 29.2415 216.705 28.6432 216.816 28.1646C216.705 27.6561 216.649 27.0578 216.649 26.3698C216.649 25.6519 216.705 25.0536 216.816 24.575H220.167C220.279 25.0536 220.335 25.6519 220.335 26.3698C220.335 27.0578 220.279 27.6561 220.167 28.1646C220.279 28.6432 220.335 29.2415 220.335 29.9594C220.335 30.6474 220.279 31.2457 220.167 31.7542C220.279 32.2328 220.335 32.8311 220.335 33.549C220.335 34.237 220.279 34.8353 220.167 35.3438H221.424C221.535 35.8224 221.591 36.4207 221.591 37.1386ZM230.219 28.1646C230.331 28.6432 230.387 29.2415 230.387 29.9594C230.387 30.6474 230.331 31.2457 230.219 31.7542C230.331 32.2328 230.387 32.8311 230.387 33.549C230.387 34.237 230.331 34.8353 230.219 35.3438C230.331 35.8224 230.387 36.4207 230.387 37.1386C230.387 37.8266 230.331 38.4249 230.219 38.9334C230.331 39.412 230.387 40.0103 230.387 40.7282C230.387 41.4162 230.331 42.0145 230.219 42.523H226.869C226.757 42.0145 226.701 41.4162 226.701 40.7282C226.701 40.0103 226.757 39.412 226.869 38.9334H225.612C225.5 38.4249 225.445 37.8266 225.445 37.1386C225.445 36.4207 225.5 35.8224 225.612 35.3438H226.869C226.757 34.8353 226.701 34.237 226.701 33.549C226.701 32.8311 226.757 32.2328 226.869 31.7542C226.757 31.2457 226.701 30.6474 226.701 29.9594C226.701 29.2415 226.757 28.6432 226.869 28.1646C226.757 27.6561 226.701 27.0578 226.701 26.3698C226.701 25.6519 226.757 25.0536 226.869 24.575H230.219C230.331 25.0536 230.387 25.6519 230.387 26.3698C230.387 27.0578 230.331 27.6561 230.219 28.1646Z" fill="#333333"/>
<path d="M246.319 37.1386C246.319 37.8266 246.263 38.4249 246.152 38.9334H244.476C244.588 39.412 244.644 40.0103 244.644 40.7282C244.644 41.4162 244.588 42.0145 244.476 42.523H235.262C235.15 42.0145 235.094 41.4162 235.094 40.7282C235.094 40.0103 235.15 39.412 235.262 38.9334H242.801C242.689 38.4249 242.633 37.8266 242.633 37.1386C242.633 36.4207 242.689 35.8224 242.801 35.3438H236.1C235.988 34.8353 235.932 34.237 235.932 33.549C235.932 32.8311 235.988 32.2328 236.1 31.7542H234.424C234.312 31.2457 234.257 30.6474 234.257 29.9594C234.257 29.2415 234.312 28.6432 234.424 28.1646H236.1C235.988 27.6561 235.932 27.0578 235.932 26.3698C235.932 25.6519 235.988 25.0536 236.1 24.575H245.314C245.426 25.0536 245.482 25.6519 245.482 26.3698C245.482 27.0578 245.426 27.6561 245.314 28.1646H237.775C237.887 28.6432 237.942 29.2415 237.942 29.9594C237.942 30.6474 237.887 31.2457 237.775 31.7542H244.476C244.588 32.2328 244.644 32.8311 244.644 33.549C244.644 34.237 244.588 34.8353 244.476 35.3438H246.152C246.263 35.8224 246.319 36.4207 246.319 37.1386Z" fill="#333333"/>
<path d="M71.342 56.0608H67.6541L66.9467 57.9859H66.0885L69.0458 49.9839H69.962L72.9076 57.9859H72.0494L71.342 56.0608ZM71.0985 55.3882L69.4981 51.0044L67.8977 55.3882H71.0985Z" fill="#292D32"/>
<path d="M75.0223 49.404V57.9859H74.2105V49.404H75.0223Z" fill="#292D32"/>
<path d="M77.2665 50.4594C77.1042 50.4594 76.965 50.4014 76.849 50.2854C76.7331 50.1694 76.6751 50.0264 76.6751 49.8563C76.6751 49.6862 76.7331 49.5471 76.849 49.4388C76.965 49.3228 77.1042 49.2649 77.2665 49.2649C77.4289 49.2649 77.5681 49.3228 77.684 49.4388C77.8 49.5471 77.858 49.6862 77.858 49.8563C77.858 50.0264 77.8 50.1694 77.684 50.2854C77.5681 50.4014 77.4289 50.4594 77.2665 50.4594ZM77.6725 51.6539V57.9859H76.8606V51.6539H77.6725Z" fill="#292D32"/>
<path d="M83.505 50.5405V53.5674H86.5783V54.24H83.505V57.3133H86.9262V57.9859H82.6932V49.8679H86.9262V50.5405H83.505Z" fill="#292D32"/>
<path d="M89.326 53.0571C89.5347 52.6164 89.8556 52.2569 90.2886 51.9786C90.7292 51.7003 91.2473 51.5611 91.8426 51.5611C92.4224 51.5611 92.9404 51.6964 93.3966 51.967C93.8528 52.2299 94.2084 52.6087 94.4635 53.1035C94.7264 53.5906 94.8578 54.1589 94.8578 54.8083C94.8578 55.4577 94.7264 56.0299 94.4635 56.5247C94.2084 57.0195 93.8489 57.4022 93.385 57.6728C92.9288 57.9434 92.4147 58.0787 91.8426 58.0787C91.2395 58.0787 90.7177 57.9434 90.277 57.6728C89.844 57.3945 89.527 57.035 89.326 56.5943V57.9859H88.5258V49.404H89.326V53.0571ZM94.0344 54.8083C94.0344 54.2826 93.9301 53.8303 93.7213 53.4514C93.5203 53.0649 93.242 52.7711 92.8863 52.5701C92.5307 52.369 92.1286 52.2685 91.6802 52.2685C91.2473 52.2685 90.8491 52.3729 90.4857 52.5816C90.1301 52.7904 89.8479 53.0881 89.6391 53.4746C89.4304 53.8612 89.326 54.3096 89.326 54.8199C89.326 55.3302 89.4304 55.7786 89.6391 56.1652C89.8479 56.5518 90.1301 56.8494 90.4857 57.0582C90.8491 57.2669 91.2473 57.3713 91.6802 57.3713C92.1286 57.3713 92.5307 57.2708 92.8863 57.0698C93.242 56.861 93.5203 56.5633 93.7213 56.1768C93.9301 55.7825 94.0344 55.3263 94.0344 54.8083Z" fill="#292D32"/>
<path d="M97.1634 52.7788C97.3412 52.3845 97.6118 52.0791 97.9752 51.8626C98.3463 51.6461 98.7986 51.5379 99.3321 51.5379V52.3845H99.1117C98.5242 52.3845 98.0525 52.543 97.6969 52.86C97.3412 53.177 97.1634 53.7066 97.1634 54.4488V57.9859H96.3516V51.6539H97.1634V52.7788Z" fill="#292D32"/>
<path d="M100.182 54.8083C100.182 54.1589 100.31 53.5906 100.565 53.1035C100.828 52.6087 101.187 52.2299 101.643 51.967C102.107 51.6964 102.629 51.5611 103.209 51.5611C103.812 51.5611 104.33 51.7003 104.763 51.9786C105.204 52.2569 105.521 52.6126 105.714 53.0455V51.6539H106.526V57.9859H105.714V56.5827C105.513 57.0156 105.192 57.3752 104.752 57.6612C104.319 57.9395 103.801 58.0787 103.197 58.0787C102.625 58.0787 102.107 57.9434 101.643 57.6728C101.187 57.4022 100.828 57.0195 100.565 56.5247C100.31 56.0299 100.182 55.4577 100.182 54.8083ZM105.714 54.8199C105.714 54.3096 105.61 53.8612 105.401 53.4746C105.192 53.0881 104.906 52.7904 104.543 52.5816C104.187 52.3729 103.793 52.2685 103.36 52.2685C102.911 52.2685 102.509 52.369 102.154 52.5701C101.798 52.7711 101.516 53.0649 101.307 53.4514C101.106 53.8303 101.006 54.2826 101.006 54.8083C101.006 55.3263 101.106 55.7825 101.307 56.1768C101.516 56.5633 101.798 56.861 102.154 57.0698C102.509 57.2708 102.911 57.3713 103.36 57.3713C103.793 57.3713 104.187 57.2669 104.543 57.0582C104.906 56.8494 105.192 56.5518 105.401 56.1652C105.61 55.7786 105.714 55.3302 105.714 54.8199Z" fill="#292D32"/>
<path d="M111.394 51.5379C111.874 51.5379 112.303 51.6384 112.682 51.8394C113.068 52.0404 113.37 52.3497 113.586 52.7672C113.811 53.177 113.923 53.6795 113.923 54.2748V57.9859H113.122V54.3676C113.122 53.6795 112.948 53.1538 112.601 52.7904C112.26 52.427 111.793 52.2453 111.197 52.2453C110.586 52.2453 110.099 52.4386 109.736 52.8252C109.373 53.2118 109.191 53.78 109.191 54.53V57.9859H108.379V49.404H109.191V52.7324C109.392 52.3536 109.686 52.0598 110.072 51.851C110.467 51.6423 110.907 51.5379 111.394 51.5379Z" fill="#292D32"/>
<path d="M116.124 50.4594C115.962 50.4594 115.822 50.4014 115.706 50.2854C115.59 50.1694 115.532 50.0264 115.532 49.8563C115.532 49.6862 115.59 49.5471 115.706 49.4388C115.822 49.3228 115.962 49.2649 116.124 49.2649C116.286 49.2649 116.425 49.3228 116.541 49.4388C116.657 49.5471 116.715 49.6862 116.715 49.8563C116.715 50.0264 116.657 50.1694 116.541 50.2854C116.425 50.4014 116.286 50.4594 116.124 50.4594ZM116.53 51.6539V57.9859H115.718V51.6539H116.53Z" fill="#292D32"/>
<path d="M125.906 51.5379C126.649 51.5379 127.252 51.7737 127.715 52.2453C128.187 52.7092 128.423 53.3857 128.423 54.2748V57.9859H127.623V54.3676C127.623 53.6795 127.456 53.1538 127.124 52.7904C126.792 52.427 126.339 52.2453 125.767 52.2453C125.172 52.2453 124.696 52.4425 124.341 52.8368C123.985 53.2311 123.807 53.8032 123.807 54.5532V57.9859H123.007V54.3676C123.007 53.6795 122.841 53.1538 122.508 52.7904C122.176 52.427 121.72 52.2453 121.14 52.2453C120.545 52.2453 120.069 52.4425 119.713 52.8368C119.358 53.2311 119.18 53.8032 119.18 54.5532V57.9859H118.368V51.6539H119.18V52.744C119.381 52.3497 119.667 52.052 120.038 51.851C120.409 51.6423 120.823 51.5379 121.279 51.5379C121.828 51.5379 122.307 51.6693 122.717 51.9322C123.135 52.1951 123.436 52.5816 123.622 53.0919C123.792 52.5894 124.082 52.2067 124.491 51.9438C124.909 51.6732 125.381 51.5379 125.906 51.5379Z" fill="#292D32"/>
<path d="M130.632 50.4594C130.469 50.4594 130.33 50.4014 130.214 50.2854C130.098 50.1694 130.04 50.0264 130.04 49.8563C130.04 49.6862 130.098 49.5471 130.214 49.4388C130.33 49.3228 130.469 49.2649 130.632 49.2649C130.794 49.2649 130.933 49.3228 131.049 49.4388C131.165 49.5471 131.223 49.6862 131.223 49.8563C131.223 50.0264 131.165 50.1694 131.049 50.2854C130.933 50.4014 130.794 50.4594 130.632 50.4594ZM131.038 51.6539V57.9859H130.226V51.6539H131.038Z" fill="#292D32"/>
<path d="M140.384 57.9859L136.87 54.24V57.9859H136.058V49.8795H136.87V53.6718L140.384 49.8795H141.416L137.624 53.9269L141.451 57.9859H140.384Z" fill="#292D32"/>
<path d="M142.279 54.8083C142.279 54.1589 142.406 53.5906 142.661 53.1035C142.924 52.6087 143.284 52.2299 143.74 51.967C144.204 51.6964 144.726 51.5611 145.306 51.5611C145.909 51.5611 146.427 51.7003 146.86 51.9786C147.3 52.2569 147.617 52.6126 147.811 53.0455V51.6539H148.622V57.9859H147.811V56.5827C147.609 57.0156 147.289 57.3752 146.848 57.6612C146.415 57.9395 145.897 58.0787 145.294 58.0787C144.722 58.0787 144.204 57.9434 143.74 57.6728C143.284 57.4022 142.924 57.0195 142.661 56.5247C142.406 56.0299 142.279 55.4577 142.279 54.8083ZM147.811 54.8199C147.811 54.3096 147.706 53.8612 147.497 53.4746C147.289 53.0881 147.003 52.7904 146.639 52.5816C146.284 52.3729 145.889 52.2685 145.456 52.2685C145.008 52.2685 144.606 52.369 144.25 52.5701C143.895 52.7711 143.612 53.0649 143.404 53.4514C143.203 53.8303 143.102 54.2826 143.102 54.8083C143.102 55.3263 143.203 55.7825 143.404 56.1768C143.612 56.5633 143.895 56.861 144.25 57.0698C144.606 57.2708 145.008 57.3713 145.456 57.3713C145.889 57.3713 146.284 57.2669 146.639 57.0582C147.003 56.8494 147.289 56.5518 147.497 56.1652C147.706 55.7786 147.811 55.3302 147.811 54.8199Z" fill="#292D32"/>
<path d="M152.656 58.0787C151.929 58.0787 151.334 57.9125 150.87 57.58C150.414 57.2399 150.159 56.7798 150.104 56.2H150.939C150.978 56.5556 151.144 56.8455 151.438 57.0698C151.74 57.2862 152.142 57.3945 152.644 57.3945C153.085 57.3945 153.429 57.2901 153.676 57.0814C153.932 56.8726 154.059 56.6136 154.059 56.3043C154.059 56.0879 153.99 55.91 153.85 55.7709C153.711 55.6317 153.533 55.5235 153.317 55.4462C153.108 55.3611 152.822 55.2722 152.459 55.1794C151.987 55.0557 151.604 54.932 151.311 54.8083C151.017 54.6846 150.766 54.5029 150.557 54.2632C150.356 54.0158 150.255 53.6872 150.255 53.2775C150.255 52.9682 150.348 52.6822 150.534 52.4193C150.719 52.1564 150.982 51.9477 151.322 51.793C151.662 51.6384 152.049 51.5611 152.482 51.5611C153.162 51.5611 153.711 51.7351 154.129 52.083C154.546 52.4232 154.77 52.8948 154.801 53.4978H153.99C153.966 53.1267 153.819 52.8291 153.549 52.6048C153.286 52.3729 152.923 52.2569 152.459 52.2569C152.049 52.2569 151.716 52.3536 151.461 52.5469C151.206 52.7401 151.079 52.9798 151.079 53.2659C151.079 53.5133 151.152 53.7182 151.299 53.8805C151.454 54.0352 151.643 54.1589 151.867 54.2516C152.091 54.3367 152.393 54.4333 152.772 54.5416C153.228 54.6653 153.591 54.7851 153.862 54.9011C154.133 55.0171 154.365 55.1871 154.558 55.4114C154.751 55.6356 154.852 55.9332 154.859 56.3043C154.859 56.6445 154.767 56.9499 154.581 57.2205C154.395 57.4834 154.136 57.6921 153.804 57.8468C153.472 58.0014 153.089 58.0787 152.656 58.0787Z" fill="#292D32"/>
<path d="M159.403 51.5379C159.882 51.5379 160.311 51.6384 160.69 51.8394C161.077 52.0404 161.378 52.3497 161.595 52.7672C161.819 53.177 161.931 53.6795 161.931 54.2748V57.9859H161.131V54.3676C161.131 53.6795 160.957 53.1538 160.609 52.7904C160.269 52.427 159.801 52.2453 159.206 52.2453C158.595 52.2453 158.108 52.4386 157.744 52.8252C157.381 53.2118 157.199 53.78 157.199 54.53V57.9859H156.387V49.404H157.199V52.7324C157.4 52.3536 157.694 52.0598 158.081 51.851C158.475 51.6423 158.916 51.5379 159.403 51.5379Z" fill="#292D32"/>
<path d="M169.455 54.4952C169.455 54.7735 169.448 54.9861 169.432 55.133H164.179C164.202 55.6124 164.318 56.0221 164.526 56.3623C164.735 56.7025 165.01 56.9615 165.35 57.1393C165.69 57.3094 166.061 57.3945 166.463 57.3945C166.989 57.3945 167.43 57.2669 167.785 57.0118C168.149 56.7566 168.388 56.4126 168.504 55.9796H169.363C169.208 56.5981 168.875 57.1045 168.365 57.4989C167.863 57.8854 167.229 58.0787 166.463 58.0787C165.868 58.0787 165.334 57.9473 164.863 57.6844C164.391 57.4138 164.02 57.035 163.749 56.5479C163.487 56.0531 163.355 55.4771 163.355 54.8199C163.355 54.1627 163.487 53.5867 163.749 53.0919C164.012 52.5971 164.38 52.2183 164.851 51.9554C165.323 51.6925 165.86 51.5611 166.463 51.5611C167.066 51.5611 167.592 51.6925 168.04 51.9554C168.497 52.2183 168.845 52.5739 169.084 53.0223C169.332 53.463 169.455 53.954 169.455 54.4952ZM168.632 54.472C168.64 54.0004 168.543 53.5983 168.342 53.2659C168.149 52.9334 167.882 52.6822 167.542 52.5121C167.202 52.342 166.83 52.2569 166.428 52.2569C165.825 52.2569 165.311 52.4502 164.886 52.8368C164.461 53.2234 164.225 53.7684 164.179 54.472H168.632Z" fill="#292D32"/>
<path d="M173.434 52.3381H171.961V57.9859H171.149V52.3381H170.268V51.6539H171.149V51.2132C171.149 50.5251 171.323 50.0187 171.671 49.6939C172.027 49.3692 172.599 49.2069 173.388 49.2069V49.9027C172.862 49.9027 172.491 50.0032 172.274 50.2042C172.065 50.4052 171.961 50.7416 171.961 51.2132V51.6539H173.434V52.3381Z" fill="#292D32"/>
<path d="M183.078 52.2105C183.078 52.9064 182.85 53.4669 182.394 53.8921C181.938 54.3174 181.254 54.53 180.341 54.53H178.706V57.9859H177.894V49.8795H180.341C181.246 49.8795 181.926 50.0921 182.382 50.5173C182.846 50.9426 183.078 51.507 183.078 52.2105ZM180.341 53.8341C181.609 53.8341 182.243 53.2929 182.243 52.2105C182.243 51.6693 182.093 51.2596 181.791 50.9812C181.489 50.7029 181.006 50.5637 180.341 50.5637H178.706V53.8341H180.341Z" fill="#292D32"/>
<path d="M185.252 52.7788C185.43 52.3845 185.701 52.0791 186.064 51.8626C186.435 51.6461 186.887 51.5379 187.421 51.5379V52.3845H187.201C186.613 52.3845 186.141 52.543 185.786 52.86C185.43 53.177 185.252 53.7066 185.252 54.4488V57.9859H184.44V51.6539H185.252V52.7788Z" fill="#292D32"/>
<path d="M191.414 58.0787C190.819 58.0787 190.281 57.9473 189.802 57.6844C189.33 57.4138 188.955 57.035 188.677 56.5479C188.406 56.0531 188.271 55.4771 188.271 54.8199C188.271 54.1627 188.41 53.5906 188.688 53.1035C188.967 52.6087 189.346 52.2299 189.825 51.967C190.304 51.6964 190.842 51.5611 191.437 51.5611C192.032 51.5611 192.57 51.6964 193.049 51.967C193.536 52.2299 193.915 52.6087 194.186 53.1035C194.464 53.5906 194.603 54.1627 194.603 54.8199C194.603 55.4693 194.464 56.0415 194.186 56.5363C193.907 57.0311 193.525 57.4138 193.037 57.6844C192.55 57.9473 192.009 58.0787 191.414 58.0787ZM191.414 57.3713C191.831 57.3713 192.218 57.2785 192.574 57.093C192.929 56.8997 193.215 56.6136 193.432 56.2348C193.656 55.8482 193.768 55.3766 193.768 54.8199C193.768 54.2632 193.66 53.7955 193.443 53.4166C193.227 53.0301 192.941 52.744 192.585 52.5585C192.229 52.3652 191.843 52.2685 191.425 52.2685C191.008 52.2685 190.621 52.3652 190.266 52.5585C189.91 52.744 189.624 53.0301 189.408 53.4166C189.199 53.7955 189.094 54.2632 189.094 54.8199C189.094 55.3766 189.199 55.8482 189.408 56.2348C189.624 56.6136 189.906 56.8997 190.254 57.093C190.61 57.2785 190.996 57.3713 191.414 57.3713Z" fill="#292D32"/>
<path d="M195.712 54.8083C195.712 54.1589 195.843 53.5906 196.106 53.1035C196.369 52.6087 196.728 52.2299 197.185 51.967C197.648 51.6964 198.17 51.5611 198.75 51.5611C199.307 51.5611 199.809 51.6964 200.258 51.967C200.706 52.2376 201.035 52.5894 201.244 53.0223V49.404H202.055V57.9859H201.244V56.5711C201.05 57.0118 200.733 57.3752 200.293 57.6612C199.852 57.9395 199.334 58.0787 198.739 58.0787C198.159 58.0787 197.637 57.9434 197.173 57.6728C196.717 57.4022 196.357 57.0195 196.094 56.5247C195.839 56.0299 195.712 55.4577 195.712 54.8083ZM201.244 54.8199C201.244 54.3096 201.139 53.8612 200.93 53.4746C200.722 53.0881 200.436 52.7904 200.072 52.5816C199.717 52.3729 199.322 52.2685 198.889 52.2685C198.441 52.2685 198.039 52.369 197.683 52.5701C197.328 52.7711 197.045 53.0649 196.837 53.4514C196.636 53.8303 196.535 54.2826 196.535 54.8083C196.535 55.3263 196.636 55.7825 196.837 56.1768C197.045 56.5633 197.328 56.861 197.683 57.0698C198.039 57.2708 198.441 57.3713 198.889 57.3713C199.322 57.3713 199.717 57.2669 200.072 57.0582C200.436 56.8494 200.722 56.5518 200.93 56.1652C201.139 55.7786 201.244 55.3302 201.244 54.8199Z" fill="#292D32"/>
<path d="M209.394 51.6539V57.9859H208.582V56.8726C208.397 57.2669 208.111 57.5684 207.724 57.7772C207.338 57.9859 206.905 58.0903 206.425 58.0903C205.668 58.0903 205.049 57.8584 204.57 57.3945C204.09 56.9229 203.851 56.2425 203.851 55.3534V51.6539H204.651V55.2606C204.651 55.9487 204.821 56.4744 205.161 56.8378C205.509 57.2012 205.981 57.3829 206.576 57.3829C207.187 57.3829 207.674 57.1896 208.037 56.803C208.401 56.4165 208.582 55.8482 208.582 55.0982V51.6539H209.394Z" fill="#292D32"/>
<path d="M210.876 54.8199C210.876 54.1627 211.008 53.5906 211.271 53.1035C211.534 52.6087 211.897 52.2299 212.361 51.967C212.825 51.6964 213.354 51.5611 213.95 51.5611C214.731 51.5611 215.372 51.7544 215.875 52.141C216.385 52.5275 216.714 53.0533 216.861 53.7182H215.991C215.883 53.262 215.647 52.9064 215.283 52.6512C214.928 52.3884 214.483 52.2569 213.95 52.2569C213.524 52.2569 213.142 52.3536 212.802 52.5469C212.461 52.7401 212.191 53.0301 211.99 53.4166C211.796 53.7955 211.7 54.2632 211.7 54.8199C211.7 55.3766 211.796 55.8482 211.99 56.2348C212.191 56.6213 212.461 56.9113 212.802 57.1045C213.142 57.2978 213.524 57.3945 213.95 57.3945C214.483 57.3945 214.928 57.2669 215.283 57.0118C215.647 56.7489 215.883 56.3855 215.991 55.9216H216.861C216.714 56.5711 216.385 57.093 215.875 57.4873C215.365 57.8816 214.723 58.0787 213.95 58.0787C213.354 58.0787 212.825 57.9473 212.361 57.6844C211.897 57.4138 211.534 57.035 211.271 56.5479C211.008 56.0531 210.876 55.4771 210.876 54.8199Z" fill="#292D32"/>
<path d="M219.415 52.3381V56.2696C219.415 56.6561 219.489 56.9229 219.636 57.0698C219.782 57.2167 220.041 57.2901 220.413 57.2901H221.155V57.9859H220.285C219.713 57.9859 219.288 57.8545 219.009 57.5916C218.731 57.321 218.592 56.8803 218.592 56.2696V52.3381H217.71V51.6539H218.592V50.0651H219.415V51.6539H221.155V52.3381H219.415Z" fill="#292D32"/>
<path d="M228.077 49.8795C228.974 49.8795 229.743 50.0419 230.385 50.3666C231.026 50.6913 231.517 51.1591 231.857 51.7698C232.198 52.3806 232.368 53.1074 232.368 53.9501C232.368 54.7851 232.198 55.508 231.857 56.1188C231.517 56.7218 231.026 57.1857 230.385 57.5105C229.743 57.8274 228.974 57.9859 228.077 57.9859H225.676V49.8795H228.077ZM228.077 57.3133C229.205 57.3133 230.064 57.0195 230.651 56.4319C231.247 55.8366 231.544 55.0093 231.544 53.9501C231.544 52.8832 231.247 52.052 230.651 51.4567C230.064 50.8537 229.205 50.5521 228.077 50.5521H226.488V57.3133H228.077Z" fill="#292D32"/>
<path d="M239.593 54.4952C239.593 54.7735 239.586 54.9861 239.57 55.133H234.317C234.34 55.6124 234.456 56.0221 234.665 56.3623C234.873 56.7025 235.148 56.9615 235.488 57.1393C235.828 57.3094 236.199 57.3945 236.601 57.3945C237.127 57.3945 237.568 57.2669 237.923 57.0118C238.287 56.7566 238.526 56.4126 238.642 55.9796H239.501C239.346 56.5981 239.013 57.1045 238.503 57.4989C238.001 57.8854 237.367 58.0787 236.601 58.0787C236.006 58.0787 235.472 57.9473 235.001 57.6844C234.529 57.4138 234.158 57.035 233.888 56.5479C233.625 56.0531 233.493 55.4771 233.493 54.8199C233.493 54.1627 233.625 53.5867 233.888 53.0919C234.15 52.5971 234.518 52.2183 234.989 51.9554C235.461 51.6925 235.998 51.5611 236.601 51.5611C237.204 51.5611 237.73 51.6925 238.178 51.9554C238.635 52.2183 238.983 52.5739 239.222 53.0223C239.47 53.463 239.593 53.954 239.593 54.4952ZM238.77 54.472C238.778 54.0004 238.681 53.5983 238.48 53.2659C238.287 52.9334 238.02 52.6822 237.68 52.5121C237.34 52.342 236.968 52.2569 236.566 52.2569C235.963 52.2569 235.449 52.4502 235.024 52.8368C234.599 53.2234 234.363 53.7684 234.317 54.472H238.77Z" fill="#292D32"/>
<path d="M243.259 58.0787C242.532 58.0787 241.937 57.9125 241.473 57.58C241.017 57.2399 240.762 56.7798 240.707 56.2H241.542C241.581 56.5556 241.747 56.8455 242.041 57.0698C242.343 57.2862 242.745 57.3945 243.247 57.3945C243.688 57.3945 244.032 57.2901 244.279 57.0814C244.535 56.8726 244.662 56.6136 244.662 56.3043C244.662 56.0879 244.593 55.91 244.453 55.7709C244.314 55.6317 244.136 55.5235 243.92 55.4462C243.711 55.3611 243.425 55.2722 243.062 55.1794C242.59 55.0557 242.207 54.932 241.914 54.8083C241.62 54.6846 241.369 54.5029 241.16 54.2632C240.959 54.0158 240.858 53.6872 240.858 53.2775C240.858 52.9682 240.951 52.6822 241.137 52.4193C241.322 52.1564 241.585 51.9477 241.925 51.793C242.265 51.6384 242.652 51.5611 243.085 51.5611C243.765 51.5611 244.314 51.7351 244.732 52.083C245.149 52.4232 245.373 52.8948 245.404 53.4978H244.593C244.569 53.1267 244.422 52.8291 244.152 52.6048C243.889 52.3729 243.526 52.2569 243.062 52.2569C242.652 52.2569 242.319 52.3536 242.064 52.5469C241.809 52.7401 241.682 52.9798 241.682 53.2659C241.682 53.5133 241.755 53.7182 241.902 53.8805C242.057 54.0352 242.246 54.1589 242.47 54.2516C242.694 54.3367 242.996 54.4333 243.375 54.5416C243.831 54.6653 244.194 54.7851 244.465 54.9011C244.736 55.0171 244.968 55.1871 245.161 55.4114C245.354 55.6356 245.455 55.9332 245.462 56.3043C245.462 56.6445 245.37 56.9499 245.184 57.2205C244.998 57.4834 244.739 57.6921 244.407 57.8468C244.075 58.0014 243.692 58.0787 243.259 58.0787Z" fill="#292D32"/>
<path d="M247.396 50.4594C247.234 50.4594 247.095 50.4014 246.979 50.2854C246.863 50.1694 246.805 50.0264 246.805 49.8563C246.805 49.6862 246.863 49.5471 246.979 49.4388C247.095 49.3228 247.234 49.2649 247.396 49.2649C247.559 49.2649 247.698 49.3228 247.814 49.4388C247.93 49.5471 247.988 49.6862 247.988 49.8563C247.988 50.0264 247.93 50.1694 247.814 50.2854C247.698 50.4014 247.559 50.4594 247.396 50.4594ZM247.802 51.6539V57.9859H246.99V51.6539H247.802Z" fill="#292D32"/>
<path d="M252.296 51.5611C252.892 51.5611 253.41 51.7003 253.85 51.9786C254.291 52.2569 254.608 52.6087 254.801 53.0339V51.6539H255.613V58.1483C255.613 58.7282 255.486 59.2423 255.23 59.6907C254.983 60.1391 254.635 60.4832 254.187 60.7229C253.738 60.9703 253.228 61.094 252.656 61.094C251.844 61.094 251.168 60.9007 250.626 60.5141C250.093 60.1276 249.76 59.6018 249.629 58.9369H250.429C250.568 59.3776 250.831 59.7294 251.218 59.9922C251.612 60.2551 252.091 60.3866 252.656 60.3866C253.066 60.3866 253.433 60.2976 253.758 60.1198C254.082 59.9497 254.337 59.6946 254.523 59.3544C254.709 59.0142 254.801 58.6122 254.801 58.1483V56.5827C254.6 57.0156 254.279 57.3752 253.839 57.6612C253.406 57.9395 252.892 58.0787 252.296 58.0787C251.716 58.0787 251.195 57.9434 250.731 57.6728C250.275 57.4022 249.915 57.0195 249.652 56.5247C249.397 56.0299 249.269 55.4577 249.269 54.8083C249.269 54.1589 249.397 53.5906 249.652 53.1035C249.915 52.6087 250.275 52.2299 250.731 51.967C251.195 51.6964 251.716 51.5611 252.296 51.5611ZM254.801 54.8199C254.801 54.3096 254.697 53.8612 254.488 53.4746C254.279 53.0881 253.993 52.7904 253.63 52.5816C253.274 52.3729 252.88 52.2685 252.447 52.2685C251.999 52.2685 251.597 52.369 251.241 52.5701C250.885 52.7711 250.603 53.0649 250.394 53.4514C250.193 53.8303 250.093 54.2826 250.093 54.8083C250.093 55.3263 250.193 55.7825 250.394 56.1768C250.603 56.5633 250.885 56.861 251.241 57.0698C251.597 57.2708 251.999 57.3713 252.447 57.3713C252.88 57.3713 253.274 57.2669 253.63 57.0582C253.993 56.8494 254.279 56.5518 254.488 56.1652C254.697 55.7786 254.801 55.3302 254.801 54.8199Z" fill="#292D32"/>
<path d="M260.435 51.5379C261.193 51.5379 261.811 51.7737 262.291 52.2453C262.77 52.7092 263.01 53.3857 263.01 54.2748V57.9859H262.21V54.3676C262.21 53.6795 262.036 53.1538 261.688 52.7904C261.348 52.427 260.88 52.2453 260.285 52.2453C259.674 52.2453 259.187 52.4386 258.823 52.8252C258.46 53.2118 258.278 53.78 258.278 54.53V57.9859H257.466V51.6539H258.278V52.7324C258.479 52.3458 258.769 52.052 259.148 51.851C259.527 51.6423 259.956 51.5379 260.435 51.5379Z" fill="#292D32"/>
<path d="M270.534 54.4952C270.534 54.7735 270.527 54.9861 270.511 55.133H265.258C265.281 55.6124 265.397 56.0221 265.605 56.3623C265.814 56.7025 266.089 56.9615 266.429 57.1393C266.769 57.3094 267.14 57.3945 267.542 57.3945C268.068 57.3945 268.509 57.2669 268.864 57.0118C269.228 56.7566 269.467 56.4126 269.583 55.9796H270.441C270.287 56.5981 269.954 57.1045 269.444 57.4989C268.942 57.8854 268.308 58.0787 267.542 58.0787C266.947 58.0787 266.413 57.9473 265.942 57.6844C265.47 57.4138 265.099 57.035 264.828 56.5479C264.566 56.0531 264.434 55.4771 264.434 54.8199C264.434 54.1627 264.566 53.5867 264.828 53.0919C265.091 52.5971 265.459 52.2183 265.93 51.9554C266.402 51.6925 266.939 51.5611 267.542 51.5611C268.145 51.5611 268.671 51.6925 269.119 51.9554C269.576 52.2183 269.923 52.5739 270.163 53.0223C270.411 53.463 270.534 53.954 270.534 54.4952ZM269.711 54.472C269.719 54.0004 269.622 53.5983 269.421 53.2659C269.228 52.9334 268.961 52.6822 268.621 52.5121C268.281 52.342 267.909 52.2569 267.507 52.2569C266.904 52.2569 266.39 52.4502 265.965 52.8368C265.54 53.2234 265.304 53.7684 265.258 54.472H269.711Z" fill="#292D32"/>
<path d="M272.831 52.7788C273.009 52.3845 273.28 52.0791 273.643 51.8626C274.014 51.6461 274.467 51.5379 275 51.5379V52.3845H274.78C274.192 52.3845 273.72 52.543 273.365 52.86C273.009 53.177 272.831 53.7066 272.831 54.4488V57.9859H272.02V51.6539H272.831V52.7788Z" fill="#292D32"/>
</svg>
